# xmcd
#
# Track frame offsets: 
#        150
#        21925
#        39525
#        56860
#        81312
#        93215
#        115345
#        119057
#        133192
#        155332
#        177210
#        180320
#        200200
#        219680
#        238972
#        267392
#
# Disc length: 3721 seconds
#
# Revision: 2
# Processed by: cddbd v1.5.2PL0 Copyright (c) Steve Scherf et al.
# Submitted via: ExactAudioCopyFreeDBPlugin 1.0
#
DISCID=f30e8710
DTITLE=Duran Duran - Pop Trash
DYEAR=2000
DGENRE=Pop
TTITLE0=Someone Else Not Me
TTITLE1=Lava Lamp
TTITLE2=Playing with Uranium
TTITLE3=Hallucinating Elvis
TTITLE4=Starting to Remember
TTITLE5=Pop Trash Movie
TTITLE6=Fragment
TTITLE7=Mars Meets Venus
TTITLE8=Lady Xanax
TTITLE9=The Sun Doesn't Shine Forever
TTITLE10=Kiss Goodbye
TTITLE11=Last Day on Earth
TTITLE12=Un autre que moi (Someone Else Not Me en francais)
TTITLE13=Alguien que no soy yo (Someone Else Not Me in espanol)
TTITLE14=Prototypes
TTITLE15=Whatever
EXTD=
EXTT0=
EXTT1=
EXTT2=
EXTT3=
EXTT4=
EXTT5=
EXTT6=
EXTT7=
EXTT8=
EXTT9=
EXTT10=
EXTT11=
EXTT12=
EXTT13=
EXTT14=
EXTT15=
PLAYORDER=
